<svg width="187" height="37" viewBox="0 0 187 37" fill="none" xmlns="http://www.w3.org/2000/svg">
<g clip-path="url(#clip0_3727_82729)">
<path d="M27.75 35.2402H8.25C7.00687 35.2402 6 34.2334 6 32.9902V4.49023C6 3.24711 7.00687 2.24023 8.25 2.24023H21.75L30 10.4902V32.9902C30 34.2334 28.9931 35.2402 27.75 35.2402Z" fill="#00AC47"/>
<path d="M21.75 2.24023L30 10.4902H21.75V2.24023Z" fill="#00832D"/>
<path d="M23.625 14.9902H18.9375H17.0625H12.375H10.5V16.8652V19.4902V21.3652V23.9902V25.8652H12.375H17.0625H18.9375H23.625H25.5V23.9902V21.3652V19.4902V16.8652V14.9902H23.625ZM12.375 16.8652H17.0625V19.4902H12.375V16.8652ZM12.375 23.9902V21.3652H17.0625V23.9902H12.375ZM23.625 23.9902H18.9375V21.3652H23.625V23.9902ZM23.625 19.4902H18.9375V16.8652H23.625V19.4902Z" fill="white"/>
</g>
<path d="M53.042 17.7042H60.72C60.7493 17.8949 60.7787 18.1002 60.808 18.3202C60.8373 18.5256 60.852 18.7456 60.852 18.9802C60.852 19.9189 60.7053 20.8502 60.412 21.7742C60.1187 22.6982 59.62 23.5196 58.916 24.2382C58.1973 24.9862 57.354 25.5656 56.386 25.9762C55.418 26.3869 54.3107 26.5922 53.064 26.5922C51.9347 26.5922 50.864 26.3869 49.852 25.9762C48.8547 25.5656 47.982 24.9936 47.234 24.2602C46.486 23.5269 45.892 22.6616 45.452 21.6642C45.0267 20.6522 44.814 19.5522 44.814 18.3642C44.814 17.1762 45.0267 16.0836 45.452 15.0862C45.892 14.0742 46.486 13.2016 47.234 12.4682C47.982 11.7349 48.8547 11.1629 49.852 10.7522C50.864 10.3416 51.9347 10.1362 53.064 10.1362C54.2667 10.1362 55.374 10.3489 56.386 10.7742C57.4127 11.1996 58.2707 11.7936 58.96 12.5562L57.222 14.2942C56.7087 13.7222 56.1 13.2822 55.396 12.9742C54.7067 12.6662 53.922 12.5122 53.042 12.5122C52.294 12.5122 51.5753 12.6516 50.886 12.9302C50.1967 13.2089 49.588 13.6049 49.06 14.1182C48.532 14.6169 48.114 15.2256 47.806 15.9442C47.498 16.6629 47.344 17.4696 47.344 18.3642C47.344 19.2589 47.498 20.0656 47.806 20.7842C48.114 21.5029 48.532 22.1189 49.06 22.6322C49.588 23.1309 50.1967 23.5196 50.886 23.7982C51.5753 24.0769 52.3013 24.2162 53.064 24.2162C54.076 24.2162 54.89 24.0622 55.506 23.7542C56.1367 23.4462 56.6647 23.0869 57.09 22.6762C57.398 22.3829 57.6693 22.0016 57.904 21.5322C58.1387 21.0482 58.2927 20.5202 58.366 19.9482H53.042V17.7042ZM67.947 15.1082C68.7683 15.1082 69.5237 15.2549 70.213 15.5482C70.9023 15.8269 71.4963 16.2229 71.995 16.7362C72.4937 17.2496 72.8823 17.8582 73.161 18.5622C73.4397 19.2662 73.579 20.0289 73.579 20.8502C73.579 21.6716 73.4397 22.4342 73.161 23.1382C72.8823 23.8422 72.4937 24.4509 71.995 24.9642C71.4963 25.4776 70.9023 25.8809 70.213 26.1742C69.5237 26.4529 68.7683 26.5922 67.947 26.5922C67.1257 26.5922 66.3703 26.4529 65.681 26.1742C64.9917 25.8809 64.3977 25.4776 63.899 24.9642C63.4003 24.4509 63.0117 23.8422 62.733 23.1382C62.4543 22.4342 62.315 21.6716 62.315 20.8502C62.315 20.0289 62.4543 19.2662 62.733 18.5622C63.0117 17.8582 63.4003 17.2496 63.899 16.7362C64.3977 16.2229 64.9917 15.8269 65.681 15.5482C66.3703 15.2549 67.1257 15.1082 67.947 15.1082ZM67.947 24.3262C68.3577 24.3262 68.7537 24.2456 69.135 24.0842C69.5163 23.9229 69.8537 23.6956 70.147 23.4022C70.455 23.1089 70.697 22.7496 70.873 22.3242C71.049 21.8842 71.137 21.3929 71.137 20.8502C71.137 20.3076 71.049 19.8236 70.873 19.3982C70.697 18.9582 70.455 18.5916 70.147 18.2982C69.8537 18.0049 69.5163 17.7776 69.135 17.6162C68.7537 17.4549 68.3577 17.3742 67.947 17.3742C67.5363 17.3742 67.1403 17.4549 66.759 17.6162C66.3777 17.7776 66.033 18.0049 65.725 18.2982C65.4317 18.5916 65.197 18.9582 65.021 19.3982C64.845 19.8236 64.757 20.3076 64.757 20.8502C64.757 21.3929 64.845 21.8842 65.021 22.3242C65.197 22.7496 65.4317 23.1089 65.725 23.4022C66.033 23.6956 66.3777 23.9229 66.759 24.0842C67.1403 24.2456 67.5363 24.3262 67.947 24.3262ZM80.5327 15.1082C81.3541 15.1082 82.1094 15.2549 82.7987 15.5482C83.4881 15.8269 84.0821 16.2229 84.5807 16.7362C85.0794 17.2496 85.4681 17.8582 85.7467 18.5622C86.0254 19.2662 86.1647 20.0289 86.1647 20.8502C86.1647 21.6716 86.0254 22.4342 85.7467 23.1382C85.4681 23.8422 85.0794 24.4509 84.5807 24.9642C84.0821 25.4776 83.4881 25.8809 82.7987 26.1742C82.1094 26.4529 81.3541 26.5922 80.5327 26.5922C79.7114 26.5922 78.9561 26.4529 78.2667 26.1742C77.5774 25.8809 76.9834 25.4776 76.4847 24.9642C75.9861 24.4509 75.5974 23.8422 75.3187 23.1382C75.0401 22.4342 74.9007 21.6716 74.9007 20.8502C74.9007 20.0289 75.0401 19.2662 75.3187 18.5622C75.5974 17.8582 75.9861 17.2496 76.4847 16.7362C76.9834 16.2229 77.5774 15.8269 78.2667 15.5482C78.9561 15.2549 79.7114 15.1082 80.5327 15.1082ZM80.5327 24.3262C80.9434 24.3262 81.3394 24.2456 81.7207 24.0842C82.1021 23.9229 82.4394 23.6956 82.7327 23.4022C83.0407 23.1089 83.2827 22.7496 83.4587 22.3242C83.6347 21.8842 83.7227 21.3929 83.7227 20.8502C83.7227 20.3076 83.6347 19.8236 83.4587 19.3982C83.2827 18.9582 83.0407 18.5916 82.7327 18.2982C82.4394 18.0049 82.1021 17.7776 81.7207 17.6162C81.3394 17.4549 80.9434 17.3742 80.5327 17.3742C80.1221 17.3742 79.7261 17.4549 79.3447 17.6162C78.9634 17.7776 78.6187 18.0049 78.3107 18.2982C78.0174 18.5916 77.7827 18.9582 77.6067 19.3982C77.4307 19.8236 77.3427 20.3076 77.3427 20.8502C77.3427 21.3929 77.4307 21.8842 77.6067 22.3242C77.7827 22.7496 78.0174 23.1089 78.3107 23.4022C78.6187 23.6956 78.9634 23.9229 79.3447 24.0842C79.7261 24.2456 80.1221 24.3262 80.5327 24.3262ZM92.9865 31.3442C92.2385 31.3442 91.5711 31.2416 90.9845 31.0362C90.4125 30.8456 89.9138 30.5962 89.4885 30.2882C89.0631 29.9802 88.7111 29.6356 88.4325 29.2542C88.1685 28.8729 87.9705 28.5062 87.8385 28.1542L90.1705 27.2082C90.3758 27.7802 90.7278 28.2422 91.2265 28.5942C91.7251 28.9609 92.3118 29.1442 92.9865 29.1442C93.9985 29.1442 94.7831 28.8362 95.3405 28.2202C95.9125 27.6042 96.1985 26.7536 96.1985 25.6682V24.7882H96.0665C95.7291 25.2722 95.2598 25.6756 94.6585 25.9982C94.0718 26.3209 93.3825 26.4822 92.5905 26.4822C91.9305 26.4822 91.2925 26.3429 90.6765 26.0642C90.0605 25.7856 89.5105 25.3969 89.0265 24.8982C88.5571 24.3996 88.1831 23.7982 87.9045 23.0942C87.6258 22.3902 87.4865 21.6202 87.4865 20.7842C87.4865 19.9482 87.6258 19.1856 87.9045 18.4962C88.1831 17.7922 88.5571 17.1909 89.0265 16.6922C89.5105 16.1936 90.0605 15.8049 90.6765 15.5262C91.2925 15.2476 91.9305 15.1082 92.5905 15.1082C93.3825 15.1082 94.0718 15.2696 94.6585 15.5922C95.2598 15.9149 95.7291 16.3182 96.0665 16.8022H96.1985V15.4602H98.5525V25.6242C98.5525 26.5482 98.4058 27.3622 98.1125 28.0662C97.8338 28.7849 97.4451 29.3862 96.9465 29.8702C96.4625 30.3542 95.8758 30.7209 95.1865 30.9702C94.5118 31.2196 93.7785 31.3442 92.9865 31.3442ZM93.0745 24.2162C93.4705 24.2162 93.8591 24.1429 94.2405 23.9962C94.6218 23.8496 94.9518 23.6296 95.2305 23.3362C95.5238 23.0429 95.7585 22.6836 95.9345 22.2582C96.1105 21.8329 96.1985 21.3416 96.1985 20.7842C96.1985 20.2416 96.1105 19.7576 95.9345 19.3322C95.7585 18.8922 95.5238 18.5329 95.2305 18.2542C94.9518 17.9609 94.6218 17.7409 94.2405 17.5942C93.8591 17.4329 93.4705 17.3522 93.0745 17.3522C92.6638 17.3522 92.2678 17.4329 91.8865 17.5942C91.5198 17.7409 91.1898 17.9609 90.8965 18.2542C90.6031 18.5476 90.3685 18.9069 90.1925 19.3322C90.0165 19.7576 89.9285 20.2416 89.9285 20.7842C89.9285 21.3269 90.0165 21.8109 90.1925 22.2362C90.3685 22.6616 90.6031 23.0209 90.8965 23.3142C91.1898 23.6076 91.5198 23.8349 91.8865 23.9962C92.2678 24.1429 92.6638 24.2162 93.0745 24.2162ZM101.096 26.2402V10.4882H103.538V26.2402H101.096ZM115.957 23.6662C115.503 24.5022 114.857 25.1989 114.021 25.7562C113.185 26.3136 112.159 26.5922 110.941 26.5922C110.135 26.5922 109.387 26.4529 108.697 26.1742C108.023 25.8809 107.436 25.4776 106.937 24.9642C106.439 24.4509 106.05 23.8496 105.771 23.1602C105.493 22.4562 105.353 21.6862 105.353 20.8502C105.353 20.0729 105.485 19.3396 105.749 18.6502C106.013 17.9462 106.38 17.3376 106.849 16.8242C107.333 16.2962 107.913 15.8782 108.587 15.5702C109.262 15.2622 110.01 15.1082 110.831 15.1082C111.667 15.1082 112.408 15.2476 113.053 15.5262C113.713 15.8049 114.271 16.1936 114.725 16.6922C115.18 17.1909 115.525 17.7922 115.759 18.4962C116.009 19.2002 116.133 19.9702 116.133 20.8062C116.133 20.8796 116.133 20.9456 116.133 21.0042C116.119 21.0776 116.111 21.1436 116.111 21.2022C116.097 21.2609 116.089 21.3196 116.089 21.3782H107.795C107.839 21.8916 107.964 22.3389 108.169 22.7202C108.375 23.1016 108.624 23.4169 108.917 23.6662C109.225 23.9156 109.563 24.0989 109.929 24.2162C110.296 24.3336 110.655 24.3922 111.007 24.3922C111.711 24.3922 112.291 24.2236 112.745 23.8862C113.2 23.5489 113.574 23.1309 113.867 22.6322L115.957 23.6662ZM113.691 19.5082C113.662 19.2882 113.589 19.0462 113.471 18.7822C113.369 18.5036 113.2 18.2542 112.965 18.0342C112.745 17.7996 112.452 17.6016 112.085 17.4402C111.733 17.2789 111.301 17.1982 110.787 17.1982C110.083 17.1982 109.475 17.4109 108.961 17.8362C108.463 18.2469 108.125 18.8042 107.949 19.5082H113.691ZM132.387 22.0382C132.387 23.4169 131.881 24.5242 130.869 25.3602C129.842 26.1816 128.595 26.5922 127.129 26.5922C125.823 26.5922 124.672 26.2109 123.675 25.4482C122.677 24.6856 121.988 23.6442 121.607 22.3242L123.543 21.5322C123.675 22.0016 123.858 22.4269 124.093 22.8082C124.327 23.1896 124.599 23.5196 124.907 23.7982C125.229 24.0622 125.581 24.2749 125.963 24.4362C126.344 24.5829 126.747 24.6562 127.173 24.6562C128.097 24.6562 128.852 24.4216 129.439 23.9522C130.025 23.4682 130.319 22.8302 130.319 22.0382C130.319 21.3782 130.077 20.8136 129.593 20.3442C129.138 19.8896 128.287 19.4496 127.041 19.0242C125.779 18.5696 124.995 18.2616 124.687 18.1002C123.015 17.2496 122.179 15.9956 122.179 14.3382C122.179 13.1796 122.641 12.1896 123.565 11.3682C124.503 10.5469 125.655 10.1362 127.019 10.1362C128.221 10.1362 129.263 10.4442 130.143 11.0602C131.023 11.6616 131.609 12.4169 131.903 13.3262L130.011 14.1182C129.835 13.5316 129.483 13.0476 128.955 12.6662C128.441 12.2702 127.811 12.0722 127.063 12.0722C126.271 12.0722 125.603 12.2922 125.061 12.7322C124.518 13.1429 124.247 13.6782 124.247 14.3382C124.247 14.8809 124.459 15.3502 124.885 15.7462C125.354 16.1422 126.373 16.6116 127.943 17.1542C129.541 17.6969 130.678 18.3642 131.353 19.1562C132.042 19.9336 132.387 20.8942 132.387 22.0382ZM134.553 10.4882H136.577V15.4602L136.489 16.9562H136.577C136.885 16.4282 137.354 15.9882 137.985 15.6362C138.63 15.2842 139.297 15.1082 139.987 15.1082C141.307 15.1082 142.319 15.4896 143.023 16.2522C143.741 17.0002 144.101 18.0709 144.101 19.4642V26.2402H142.077V19.8602C142.077 17.9242 141.219 16.9562 139.503 16.9562C138.681 16.9562 137.985 17.3009 137.413 17.9902C136.855 18.6649 136.577 19.4569 136.577 20.3662V26.2402H134.553V10.4882ZM151.398 26.5922C149.814 26.5922 148.509 26.0496 147.482 24.9642C146.456 23.8789 145.942 22.5076 145.942 20.8502C145.942 19.2076 146.441 17.8436 147.438 16.7582C148.436 15.6582 149.712 15.1082 151.266 15.1082C152.865 15.1082 154.134 15.6289 155.072 16.6702C156.026 17.6969 156.502 19.1416 156.502 21.0042L156.48 21.2242H148.01C148.04 22.2802 148.392 23.1309 149.066 23.7762C149.741 24.4216 150.548 24.7442 151.486 24.7442C152.777 24.7442 153.789 24.0989 154.522 22.8082L156.326 23.6882C155.842 24.5976 155.168 25.3089 154.302 25.8222C153.452 26.3356 152.484 26.5922 151.398 26.5922ZM148.164 19.5522H154.346C154.288 18.8042 153.98 18.1882 153.422 17.7042C152.88 17.2056 152.146 16.9562 151.222 16.9562C150.46 16.9562 149.8 17.1909 149.242 17.6602C148.7 18.1296 148.34 18.7602 148.164 19.5522ZM163.382 26.5922C161.798 26.5922 160.493 26.0496 159.466 24.9642C158.44 23.8789 157.926 22.5076 157.926 20.8502C157.926 19.2076 158.425 17.8436 159.422 16.7582C160.42 15.6582 161.696 15.1082 163.25 15.1082C164.849 15.1082 166.118 15.6289 167.056 16.6702C168.01 17.6969 168.486 19.1416 168.486 21.0042L168.464 21.2242H159.994C160.024 22.2802 160.376 23.1309 161.05 23.7762C161.725 24.4216 162.532 24.7442 163.47 24.7442C164.761 24.7442 165.773 24.0989 166.506 22.8082L168.31 23.6882C167.826 24.5976 167.152 25.3089 166.286 25.8222C165.436 26.3356 164.468 26.5922 163.382 26.5922ZM160.148 19.5522H166.33C166.272 18.8042 165.964 18.1882 165.406 17.7042C164.864 17.2056 164.13 16.9562 163.206 16.9562C162.444 16.9562 161.784 17.1909 161.226 17.6602C160.684 18.1296 160.324 18.7602 160.148 19.5522ZM174.365 26.4162C173.485 26.4162 172.752 26.1449 172.165 25.6022C171.593 25.0596 171.3 24.3042 171.285 23.3362V17.3082H169.393V15.4602H171.285V12.1602H173.309V15.4602H175.949V17.3082H173.309V22.6762C173.309 23.3949 173.448 23.8862 173.727 24.1502C174.006 24.3996 174.321 24.5242 174.673 24.5242C174.834 24.5242 174.988 24.5096 175.135 24.4802C175.296 24.4362 175.443 24.3849 175.575 24.3262L176.213 26.1302C175.685 26.3209 175.069 26.4162 174.365 26.4162ZM186.421 23.2482C186.421 24.1869 186.01 24.9789 185.189 25.6242C184.368 26.2696 183.334 26.5922 182.087 26.5922C181.002 26.5922 180.048 26.3136 179.227 25.7562C178.406 25.1842 177.819 24.4362 177.467 23.5122L179.271 22.7422C179.535 23.3876 179.916 23.8936 180.415 24.2602C180.928 24.6122 181.486 24.7882 182.087 24.7882C182.732 24.7882 183.268 24.6489 183.693 24.3702C184.133 24.0916 184.353 23.7616 184.353 23.3802C184.353 22.6909 183.825 22.1849 182.769 21.8622L180.921 21.4002C178.824 20.8722 177.775 19.8602 177.775 18.3642C177.775 17.3816 178.171 16.5969 178.963 16.0102C179.77 15.4089 180.796 15.1082 182.043 15.1082C182.996 15.1082 183.854 15.3356 184.617 15.7902C185.394 16.2449 185.937 16.8536 186.245 17.6162L184.441 18.3642C184.236 17.9096 183.898 17.5576 183.429 17.3082C182.974 17.0442 182.461 16.9122 181.889 16.9122C181.361 16.9122 180.884 17.0442 180.459 17.3082C180.048 17.5722 179.843 17.8949 179.843 18.2762C179.843 18.8922 180.422 19.3322 181.581 19.5962L183.209 20.0142C185.35 20.5422 186.421 21.6202 186.421 23.2482Z" fill="#5F6368"/>
<defs>
<clipPath id="clip0_3727_82729">
<rect width="36" height="36" fill="white" transform="translate(0 0.740234)"/>
</clipPath>
</defs>
</svg>
