<svg width="100" height="100" viewBox="0 0 100 100" fill="none" xmlns="http://www.w3.org/2000/svg">
<g clip-path="url(#clip0_3727_82732)">
<path d="M77.0832 95.8337H22.9165C19.4634 95.8337 16.6665 93.0368 16.6665 89.5837V10.417C16.6665 6.96387 19.4634 4.16699 22.9165 4.16699H60.4165L83.3332 27.0837V89.5837C83.3332 93.0368 80.5363 95.8337 77.0832 95.8337Z" fill="#00AC47"/>
<path d="M60.4165 4.16699L83.3332 27.0837H60.4165V4.16699Z" fill="#00832D"/>
<path d="M65.6248 39.583H52.604H47.3957H34.3748H29.1665V44.7913V52.083V57.2913V64.583V69.7913H34.3748H47.3957H52.604H65.6248H70.8332V64.583V57.2913V52.083V44.7913V39.583H65.6248ZM34.3748 44.7913H47.3957V52.083H34.3748V44.7913ZM34.3748 64.583V57.2913H47.3957V64.583H34.3748ZM65.6248 64.583H52.604V57.2913H65.6248V64.583ZM65.6248 52.083H52.604V44.7913H65.6248V52.083Z" fill="white"/>
</g>
<defs>
<clipPath id="clip0_3727_82732">
<rect width="100" height="100" fill="white"/>
</clipPath>
</defs>
</svg>
